<svg xmlns="http://www.w3.org/2000/svg" version="1.1" xmlns:xlink="http://www.w3.org/1999/xlink" xmlns:svgjs="http://svgjs.dev/svgjs" width="1000" height="1000" viewBox="0 0 1000 1000"><rect width="1000" height="1000" fill="#ffffff"></rect><g transform="matrix(0.7,0,0,0.7,150,281.25)"><svg viewBox="0 0 512 320" data-background-color="#ffffff" preserveAspectRatio="xMidYMid meet" height="625" width="1000" xmlns="http://www.w3.org/2000/svg" xmlns:xlink="http://www.w3.org/1999/xlink"><g id="tight-bounds" transform="matrix(1,0,0,1,0,0)"><svg viewBox="0 0 512 320" height="320" width="512"><g><svg></svg></g><g><svg viewBox="0 0 512 320" height="320" width="512"><g><path d="M96 320l0-320 320 0 0 320z" fill="#264653" fill-rule="nonzero" stroke="none" stroke-width="1" stroke-linecap="butt" stroke-linejoin="miter" stroke-miterlimit="10" stroke-dasharray="" stroke-dashoffset="0" font-family="none" font-weight="none" font-size="none" text-anchor="none" style="mix-blend-mode: normal" data-fill-palette-color="tertiary"></path></g><g transform="matrix(1,0,0,1,152.88888888888886,80)"><svg viewBox="0 0 206.22222222222226 160" height="160" width="206.22222222222226"><g><svg viewBox="0 0 206.22222222222226 160" height="160" width="206.22222222222226"><g><svg viewBox="0 0 206.22222222222226 160" height="160" width="206.22222222222226"><g><svg viewBox="0 0 206.22222222222226 160" height="160" width="206.22222222222226"><g id="textblocktransform"><svg viewBox="0 0 206.22222222222226 160" height="160" width="206.22222222222226" id="textblock"><g><svg viewBox="0 0 206.22222222222226 160" height="160" width="206.22222222222226"><g transform="matrix(1,0,0,1,0,0)"><svg width="206.22222222222226" viewBox="1.75 -35.25 46.4 36" height="160" data-palette-color="#ffffff"><path d="M14.5-35.25Q17.15-35.25 19.18-34.38 21.2-33.5 23.1-31.7L23.1-31.7 20.05-28.05Q18.75-29.25 17.53-29.83 16.3-30.4 14.85-30.4L14.85-30.4Q11.85-30.4 10.15-27.4 8.45-24.4 8.45-17.35L8.45-17.35Q8.45-10.4 10.15-7.38 11.85-4.35 14.95-4.35L14.95-4.35Q16.5-4.35 17.65-4.98 18.8-5.6 20.35-6.9L20.35-6.9 23.4-3.4Q21.8-1.6 19.55-0.43 17.3 0.75 14.5 0.75L14.5 0.75Q8.65 0.75 5.2-3.8 1.75-8.35 1.75-17.35L1.75-17.35Q1.75-23.3 3.4-27.3 5.05-31.3 7.93-33.27 10.8-35.25 14.5-35.25L14.5-35.25ZM48.15-34.55L48.15-9.7Q48.15-5.15 45.32-2.23 42.5 0.7 37.25 0.7L37.25 0.7Q31.9 0.7 29.1-2.18 26.3-5.05 26.3-9.7L26.3-9.7 26.3-34.55 32.65-34.55 32.65-10Q32.65-7.1 33.75-5.68 34.85-4.25 37.25-4.25L37.25-4.25Q39.6-4.25 40.7-5.68 41.8-7.1 41.8-10L41.8-10 41.8-34.55 48.15-34.55Z" opacity="1" transform="matrix(1,0,0,1,0,0)" fill="#ffffff" class="wordmark-text-0" data-fill-palette-color="quaternary" id="text-0"></path></svg></g></svg></g></svg></g></svg></g><g></g></svg></g></svg></g></svg></g></svg></g><defs></defs></svg><rect width="512" height="320" fill="none" stroke="none" visibility="hidden"></rect></g></svg></g></svg>